<?xml version="1.0" encoding="UTF-8" standalone="no"?>
<!DOCTYPE svg PUBLIC "-//W3C//DTD SVG 1.1//EN" "http://www.w3.org/Graphics/SVG/1.1/DTD/svg11.dtd">
<svg width="100%" height="100%" viewBox="0 0 32 32" version="1.1" xmlns="http://www.w3.org/2000/svg" xmlns:xlink="http://www.w3.org/1999/xlink" xml:space="preserve" xmlns:serif="http://www.serif.com/" style="fill-rule:evenodd;clip-rule:evenodd;stroke-linejoin:round;stroke-miterlimit:2;">
    <g id="redo" transform="matrix(-1,0,0,1,32,0)">
        <path d="M7.772,22.619C7.646,22.718 7.489,22.774 7.325,22.774C7.073,22.774 6.84,22.643 6.709,22.428L3.213,16.665C3.131,16.529 3.128,16.361 3.206,16.223C3.283,16.085 3.429,16 3.587,16L5.439,16C5.439,10.171 10.171,5.439 16,5.439C21.829,5.439 26.561,10.172 26.561,16.001C26.561,21.829 21.829,25.66 16,25.66C18.936,25.66 21.453,22.794 22.492,19.723C22.819,18.753 23,17.763 23,16.836C23,12.972 19.863,9.836 16,9.836C12.419,9.836 9.463,12.53 9.049,16L11.062,16C11.22,16 11.366,16.085 11.444,16.223C11.521,16.361 11.519,16.529 11.437,16.665L7.94,22.428C7.895,22.502 7.838,22.566 7.772,22.619Z" style="fill:rgb(61,61,61);"/>
    </g>
</svg>
