<?xml version="1.0" encoding="UTF-8" standalone="no"?>
<!DOCTYPE svg PUBLIC "-//W3C//DTD SVG 1.1//EN" "http://www.w3.org/Graphics/SVG/1.1/DTD/svg11.dtd">
<svg width="100%" height="100%" viewBox="0 0 32 32" version="1.1" xmlns="http://www.w3.org/2000/svg" xmlns:xlink="http://www.w3.org/1999/xlink" xml:space="preserve" xmlns:serif="http://www.serif.com/" style="fill-rule:evenodd;clip-rule:evenodd;stroke-linejoin:round;stroke-miterlimit:2;">
    <g id="undo" transform="matrix(0.948347,0,0,0.948347,1.37197,0.280954)">
        <path d="M7.772,24.727C7.646,24.827 7.489,24.883 7.325,24.883C7.073,24.883 6.84,24.752 6.709,24.537L1.104,16.665C1.022,16.529 1.019,16.361 1.097,16.223C1.174,16.085 1.32,16 1.478,16L5.439,16C5.439,10.171 10.171,5.439 16,5.439C21.829,5.439 26.561,10.172 26.561,16.001C26.561,17.905 26.056,19.595 25.173,21.009C24.768,21.649 23.948,21.886 23.264,21.559C22.58,21.233 22.248,20.447 22.491,19.729C22.49,19.726 22.491,19.725 22.492,19.723C22.819,18.753 23,17.763 23,16.836C23,12.972 19.863,9.836 16,9.836C12.419,9.836 9.463,12.53 9.049,16L13.171,16C13.329,16 13.475,16.085 13.553,16.223C13.63,16.361 13.627,16.529 13.545,16.665L7.94,24.537C7.895,24.611 7.838,24.675 7.772,24.727Z" style="fill:rgb(61,61,61);"/>
    </g>
</svg>
